name analog
datacolumns 19
datarows 63
range 0.3395 0.3705
endheader
time	ground_force_vx	ground_force_vy	ground_force_vz	ground_force_px	ground_force_py	ground_force_pz	l_ground_force_vx	l_ground_force_vy	l_ground_force_vz	l_ground_force_px	l_ground_force_py	l_ground_force_pz	ground_torque_x	ground_torque_y	ground_torque_z	l_ground_torque_x	l_ground_torque_y	l_ground_torque_z
0.3395	-0.0	-0.0	-0.0	-0.0	-0.0	-0.0	-1.610654592514038	-1.447187423706055	-498.184814453125	-0.0	-0.0	-0.0	-0.0	-0.0	-0.0	150395.046875	26062.8828125	-1674.1322021484375
0.34	-0.0	-0.0	-0.0	-0.0	-0.0	-0.0	-2.7909088134765625	-1.5627344846725464	-497.6480102539063	-0.0	-0.0	-0.0	-0.0	-0.0	-0.0	150233.25	26149.578125	-1855.2203369140625
0.3405	-0.0	-0.0	-0.0	-0.0	-0.0	-0.0	-2.7088515758514404	-1.5897903442382812	-497.4070129394531	-0.0	-0.0	-0.0	-0.0	-0.0	-0.0	150214.53125	26082.380859375	-1878.0504150390625
0.341	-0.0	-0.0	-0.0	-0.0	-0.0	-0.0	-3.02360463142395	-1.6104167699813845	-496.9765625	-0.0	-0.0	-0.0	-0.0	-0.0	-0.0	150068.203125	26100.6640625	-1882.7620849609373
0.3415	-0.0	-0.0	-0.0	-0.0	-0.0	-0.0	-3.0579094886779785	-1.875535249710083	-495.7439575195313	-0.0	-0.0	-0.0	-0.0	-0.0	-0.0	150060.859375	26313.978515625	-1915.1080322265625
0.342	-0.0	-0.0	-0.0	-0.0	-0.0	-0.0	-3.227454423904419	-1.4212021827697754	-495.3635559082031	-0.0	-0.0	-0.0	-0.0	-0.0	-0.0	149821.671875	26052.931640625	-1971.8074951171875
0.3425	-0.0	-0.0	-0.0	-0.0	-0.0	-0.0	-3.4935333728790283	-0.8158877491950989	-494.481689453125	-0.0	-0.0	-0.0	-0.0	-0.0	-0.0	149824.984375	26104.443359375	-1896.934326171875
0.343	-0.0	-0.0	-0.0	-0.0	-0.0	-0.0	-2.914959192276001	-0.6518396735191345	-493.31683349609375	-0.0	-0.0	-0.0	-0.0	-0.0	-0.0	150013.359375	25944.982421875	-1800.464111328125
0.3435	-0.0	-0.0	-0.0	-0.0	-0.0	-0.0	-2.095386028289795	0.3197616934776306	-492.6044921875	-0.0	-0.0	-0.0	-0.0	-0.0	-0.0	150200.75	25859.806640625	-1473.35107421875
0.34400000000000003	-0.0	-0.0	-0.0	-0.0	-0.0	-0.0	-1.000111699104309	0.5299301147460938	-492.56842041015625	-0.0	-0.0	-0.0	-0.0	-0.0	-0.0	150459.984375	25709.6796875	-1260.8267822265625
0.34450000000000003	-0.0	-0.0	-0.0	-0.0	-0.0	-0.0	-0.5993488430976868	0.8282901048660278	-493.0489807128906	-0.0	-0.0	-0.0	-0.0	-0.0	-0.0	150675.828125	25717.681640625	-1112.248779296875
0.34500000000000003	-0.0	-0.0	-0.0	-0.0	-0.0	-0.0	-0.7666183710098267	1.7664337158203125	-492.9559326171875	-0.0	-0.0	-0.0	-0.0	-0.0	-0.0	150962.59375	25708.244140625	-1205.1270751953125
0.34550000000000003	-0.0	-0.0	-0.0	-0.0	-0.0	-0.0	-1.4308679103851318	2.20804214477539	-491.7779235839844	-0.0	-0.0	-0.0	-0.0	-0.0	-0.0	151563.8125	26106.94921875	-1357.67724609375
0.34600000000000003	-0.0	-0.0	-0.0	-0.0	-0.0	-0.0	-2.2731316089630127	4.117916584014893	-492.8287963867188	-0.0	-0.0	-0.0	-0.0	-0.0	-0.0	152103.203125	26068.07421875	-1465.2601318359375
0.34650000000000003	-0.0	-0.0	-0.0	-0.0	-0.0	-0.0	-1.885046362876892	5.255255222320557	-494.83489990234375	-0.0	-0.0	-0.0	-0.0	-0.0	-0.0	153039.53125	26460.65234375	-1431.3536376953125
0.34700000000000003	-0.0	-0.0	-0.0	-0.0	-0.0	-0.0	-2.118114471435547	6.690271854400635	-497.104248046875	-0.0	-0.0	-0.0	-0.0	-0.0	-0.0	153498.203125	26833.96875	-1301.3651123046875
0.34750000000000003	-0.0	-0.0	-0.0	-0.0	-0.0	-0.0	-2.439991235733032	7.772308349609375	-497.93603515625	-0.0	-0.0	-0.0	-0.0	-0.0	-0.0	154148.4375	27252.587890625	-1282.80517578125
0.34800000000000003	-0.0	-0.0	-0.0	-0.0	-0.0	-0.0	-2.960557460784912	8.004317283630371	-498.8074035644531	-0.0	-0.0	-0.0	-0.0	-0.0	-0.0	154499.671875	27558.33203125	-1272.0836181640625
0.34850000000000003	-0.0	-0.0	-0.0	-0.0	-0.0	-0.0	-2.983142137527466	8.22616195678711	-498.7668762207031	-0.0	-0.0	-0.0	-0.0	-0.0	-0.0	154693.203125	27957.431640625	-1171.4381103515625
0.34900000000000003	-0.0	-0.0	-0.0	-0.0	-0.0	-0.0	-3.482508659362793	7.827813148498535	-500.1148376464844	-0.0	-0.0	-0.0	-0.0	-0.0	-0.0	155121.578125	28262.734375	-1105.6781005859375
0.34950000000000003	-0.0	-0.0	-0.0	-0.0	-0.0	-0.0	-4.356770992279053	7.73956823348999	-500.5931396484375	-0.0	-0.0	-0.0	-0.0	-0.0	-0.0	155141.78125	28528.5390625	-1217.3582763671875
0.35000000000000003	-0.0	-0.0	-0.0	-0.0	-0.0	-0.0	-5.75293493270874	7.706934452056885	-499.5452270507813	-0.0	-0.0	-0.0	-0.0	-0.0	-0.0	155142.734375	29032.7578125	-1504.021484375
0.35050000000000003	-0.0	-0.0	-0.0	-0.0	-0.0	-0.0	-6.144199371337891	8.190862655639648	-498.7707824707031	-0.0	-0.0	-0.0	-0.0	-0.0	-0.0	154951.6875	29540.75	-1585.4439697265625
0.35100000000000003	-0.0	-0.0	-0.0	-0.0	-0.0	-0.0	-6.54128885269165	8.046623229980469	-499.635986328125	-0.0	-0.0	-0.0	-0.0	-0.0	-0.0	155016.0	29772.9453125	-1596.672119140625
0.35150000000000003	-0.0	-0.0	-0.0	-0.0	-0.0	-0.0	-7.073427200317383	7.82813549041748	-501.3257141113281	-0.0	-0.0	-0.0	-0.0	-0.0	-0.0	155116.296875	29985.763671875	-1656.3919677734375
0.352	-0.0	-0.0	-0.0	-0.0	-0.0	-0.0	-7.227200508117676	7.330699920654297	-501.4743957519531	-0.0	-0.0	-0.0	-0.0	-0.0	-0.0	155289.640625	30056.83984375	-1697.15185546875
0.3525	-0.0	-0.0	-0.0	-0.0	-0.0	-0.0	-7.460517406463623	7.098099708557129	-501.4750061035156	-0.0	-0.0	-0.0	-0.0	-0.0	-0.0	154805.109375	30102.05859375	-1694.353271484375
0.353	-0.0	-0.0	-0.0	-0.0	-0.0	-0.0	-7.782727241516113	7.201491355895996	-502.3952331542969	-0.0	-0.0	-0.0	-0.0	-0.0	-0.0	154865.890625	30243.330078125	-1656.92626953125
0.3535	-0.0	-0.0	-0.0	-0.0	-0.0	-0.0	-7.790964126586914	6.447483062744141	-501.1269226074219	-0.0	-0.0	-0.0	-0.0	-0.0	-0.0	154977.8125	30570.20703125	-1867.5263671875
0.354	-0.0	-0.0	-0.0	-0.0	-0.0	-0.0	-8.145541191101074	6.118173122406006	-502.2396240234375	-0.0	-0.0	-0.0	-0.0	-0.0	-0.0	155051.203125	30847.072265625	-1832.60400390625
0.3545	-0.0	-0.0	-0.0	-0.0	-0.0	-0.0	-8.217842102050781	5.516073703765869	-502.2388000488281	-0.0	-0.0	-0.0	-0.0	-0.0	-0.0	155432.5625	31027.98828125	-1951.4822998046875
0.355	-0.0	-0.0	-0.0	-0.0	-0.0	-0.0	-8.250102996826172	4.5927276611328125	-504.5890502929688	-0.0	-0.0	-0.0	-0.0	-0.0	-0.0	155089.234375	31159.107421875	-1954.387451171875
0.3555	-0.0	-0.0	-0.0	-0.0	-0.0	-0.0	-8.346465110778809	4.327762603759766	-504.0184326171875	-0.0	-0.0	-0.0	-0.0	-0.0	-0.0	155325.46875	31338.26953125	-2062.396240234375
0.356	-0.0	-0.0	-0.0	-0.0	-0.0	-0.0	-8.789857864379883	3.4764719009399414	-503.9814758300781	-0.0	-0.0	-0.0	-0.0	-0.0	-0.0	155150.609375	31636.69140625	-2122.238037109375
0.3565	-0.0	-0.0	-0.0	-0.0	-0.0	-0.0	-9.307374000549316	2.769821882247925	-502.2630615234375	-0.0	-0.0	-0.0	-0.0	-0.0	-0.0	155051.09375	31686.7890625	-2395.57861328125
0.357	-0.0	-0.0	-0.0	-0.0	-0.0	-0.0	-9.878833770751951	2.06319522857666	-502.3034973144531	-0.0	-0.0	-0.0	-0.0	-0.0	-0.0	155005.828125	31855.283203125	-2576.593994140625
0.3575	-0.0	-0.0	-0.0	-0.0	-0.0	-0.0	-10.176748275756836	1.854755401611328	-501.981689453125	-0.0	-0.0	-0.0	-0.0	-0.0	-0.0	154763.40625	32078.541015625	-2735.858154296875
0.358	-0.0	-0.0	-0.0	-0.0	-0.0	-0.0	-10.315568923950195	1.89306116104126	-502.0537414550781	-0.0	-0.0	-0.0	-0.0	-0.0	-0.0	154769.90625	32187.35546875	-2956.4609375
0.3585	-0.0	-0.0	-0.0	-0.0	-0.0	-0.0	-10.474390983581545	1.68460214138031	-501.282470703125	-0.0	-0.0	-0.0	-0.0	-0.0	-0.0	154757.4375	32415.443359375	-3011.524169921875
0.359	-0.0	-0.0	-0.0	-0.0	-0.0	-0.0	-10.44249439239502	1.268030881881714	-503.1275024414063	-0.0	-0.0	-0.0	-0.0	-0.0	-0.0	154914.078125	32392.791015625	-3054.014404296875
0.3595	-0.0	-0.0	-0.0	-0.0	-0.0	-0.0	-10.258848190307615	1.0852530002593994	-501.6545104980469	-0.0	-0.0	-0.0	-0.0	-0.0	-0.0	155050.875	32340.564453125	-2947.8388671875
0.36	-0.0	-0.0	-0.0	-0.0	-0.0	-0.0	-9.434892654418944	0.9597148895263672	-503.5774536132813	-0.0	-0.0	-0.0	-0.0	-0.0	-0.0	155223.859375	32145.16015625	-2833.114501953125
0.3605	-0.0	-0.0	-0.0	-0.0	-0.0	-0.0	-8.74518871307373	0.6809207201004028	-503.8258056640625	-0.0	-0.0	-0.0	-0.0	-0.0	-0.0	155437.546875	32087.607421875	-2656.67041015625
0.361	-0.0	-0.0	-0.0	-0.0	-0.0	-0.0	-7.608800888061523	1.0341010093688965	-505.5497131347656	-0.0	-0.0	-0.0	-0.0	-0.0	-0.0	155404.15625	31897.521484375	-2498.78271484375
0.3615	-0.0	-0.0	-0.0	-0.0	-0.0	-0.0	-6.794073104858398	1.091064691543579	-505.571533203125	-0.0	-0.0	-0.0	-0.0	-0.0	-0.0	155971.625	31702.865234375	-2133.439697265625
0.362	-0.0	-0.0	-0.0	-0.0	-0.0	-0.0	-5.536473274230957	1.0026801824569702	-507.78955078125	-0.0	-0.0	-0.0	-0.0	-0.0	-0.0	156273.3125	31519.978515625	-1931.845458984375
0.3625	-0.0	-0.0	-0.0	-0.0	-0.0	-0.0	-4.054436683654785	1.1743263006210327	-507.8927001953125	-0.0	-0.0	-0.0	-0.0	-0.0	-0.0	156601.65625	31136.78515625	-1682.993896484375
0.363	-0.0	-0.0	-0.0	-0.0	-0.0	-0.0	-3.109612464904785	1.298527479171753	-508.5726623535156	-0.0	-0.0	-0.0	-0.0	-0.0	-0.0	157110.859375	30675.26953125	-1356.01171875
0.3635	-0.0	-0.0	-0.0	-0.0	-0.0	-0.0	-2.519533634185791	1.0598602294921875	-510.1105346679688	-0.0	-0.0	-0.0	-0.0	-0.0	-0.0	157207.203125	30530.66796875	-1225.102783203125
0.364	-0.0	-0.0	-0.0	-0.0	-0.0	-0.0	-2.390805721282959	0.7596330642700195	-507.8058776855469	-0.0	-0.0	-0.0	-0.0	-0.0	-0.0	156931.65625	30153.220703125	-1148.028076171875
0.3645	-0.0	-0.0	-0.0	-0.0	-0.0	-0.0	-0.851998507976532	1.1790012121200562	-508.0319519042969	-0.0	-0.0	-0.0	-0.0	-0.0	-0.0	157327.890625	29772.7890625	-881.2657470703125
0.365	-0.0	-0.0	-0.0	-0.0	-0.0	-0.0	1.3575881719589231	2.0582070350646973	-510.930419921875	-0.0	-0.0	-0.0	-0.0	-0.0	-0.0	157852.546875	29194.87109375	-203.5076904296875
0.3655	-0.0	-0.0	-0.0	-0.0	-0.0	-0.0	3.135692596435547	2.496250629425049	-513.5872802734375	-0.0	-0.0	-0.0	-0.0	-0.0	-0.0	158823.359375	28886.61328125	539.3145751953125
0.366	-0.0	-0.0	-0.0	-0.0	-0.0	-0.0	5.288310050964356	2.6261420249938965	-515.3477783203125	-0.0	-0.0	-0.0	-0.0	-0.0	-0.0	159982.796875	28869.5390625	993.6279296875
0.3665	-0.0	-0.0	-0.0	-0.0	-0.0	-0.0	5.8856201171875	2.5069808959960938	-517.5501098632812	-0.0	-0.0	-0.0	-0.0	-0.0	-0.0	160384.515625	28847.1953125	1287.2193603515625
0.367	-0.0	-0.0	-0.0	-0.0	-0.0	-0.0	5.411357879638672	3.2710721492767334	-517.8043823242188	-0.0	-0.0	-0.0	-0.0	-0.0	-0.0	160939.140625	28802.8828125	1190.1763916015625
0.3675	-0.0	-0.0	-0.0	-0.0	-0.0	-0.0	4.677092552185059	3.5633018016815186	-519.0917358398438	-0.0	-0.0	-0.0	-0.0	-0.0	-0.0	160680.359375	29069.380859375	873.708984375
0.368	-0.0	-0.0	-0.0	-0.0	-0.0	-0.0	4.25811767578125	4.096000671386719	-518.6102294921875	-0.0	-0.0	-0.0	-0.0	-0.0	-0.0	160828.09375	29318.802734375	717.9012451171875
0.3685	-0.0	-0.0	-0.0	-0.0	-0.0	-0.0	3.487555503845215	4.181423664093018	-518.5004272460938	-0.0	-0.0	-0.0	-0.0	-0.0	-0.0	160753.40625	29237.849609375	675.63720703125
0.369	-0.0	-0.0	-0.0	-0.0	-0.0	-0.0	2.810784339904785	4.090635776519775	-516.046142578125	-0.0	-0.0	-0.0	-0.0	-0.0	-0.0	160296.625	29741.56640625	508.1340026855469
0.3695	-0.0	-0.0	-0.0	-0.0	-0.0	-0.0	1.6530239582061768	3.739675760269165	-513.5934448242188	-0.0	-0.0	-0.0	-0.0	-0.0	-0.0	159588.265625	29947.869140625	198.91244506835935
0.37	-0.0	-0.0	-0.0	-0.0	-0.0	-0.0	0.3528197109699249	3.532867431640625	-512.3164672851562	-0.0	-0.0	-0.0	-0.0	-0.0	-0.0	158871.234375	29972.15625	-176.83596801757812
0.3705	-0.0	-0.0	-0.0	-0.0	-0.0	-0.0	-0.9795461893081664	3.56478214263916	-511.6112976074219	-0.0	-0.0	-0.0	-0.0	-0.0	-0.0	158584.046875	30093.875	-502.83343505859375
